<?xml version="1.0" encoding="UTF-8" standalone="no"?>
<!DOCTYPE svg PUBLIC "-//W3C//DTD SVG 1.1//EN"
 "http://www.w3.org/Graphics/SVG/1.1/DTD/svg11.dtd">
<!-- Generated by graphviz version 2.43.0 (0)
 -->
<!-- Title: G Pages: 1 -->
<svg width="1010pt" height="391pt"
 viewBox="0.00 0.00 1010.25 390.98" xmlns="http://www.w3.org/2000/svg" xmlns:xlink="http://www.w3.org/1999/xlink">
<g id="graph0" class="graph" transform="scale(1 1) rotate(0) translate(4 386.98)">
<title>G</title><style>.edge>path:hover{stroke-width:8}</style>
<polygon fill="white" stroke="transparent" points="-4,4 -4,-386.98 1006.25,-386.98 1006.25,4 -4,4"/>
<!-- extractive_summary -->
<g id="node1" class="node">
<title>extractive_summary</title><style>.edge>path:hover{stroke-width:8}</style>
<ellipse fill="#8f3d3d" stroke="black" cx="304.16" cy="-127" rx="69.42" ry="18"/>
<text text-anchor="middle" x="304.16" y="-124.5" font-family="Helvetica,sans-Serif" font-size="10.00" fill="#ffffff">extractive_summary</text>
</g>
<!-- main_py -->
<g id="node8" class="node">
<title>main_py</title><style>.edge>path:hover{stroke-width:8}</style>
<ellipse fill="#78924e" stroke="black" cx="731.16" cy="-18" rx="32.93" ry="18"/>
<text text-anchor="middle" x="731.16" y="-15.5" font-family="Helvetica,sans-Serif" font-size="10.00" fill="#000000">main.py</text>
</g>
<!-- extractive_summary&#45;&gt;main_py -->
<g id="edge1" class="edge">
<title>extractive_summary&#45;&gt;main_py</title><style>.edge>path:hover{stroke-width:8}</style>
<path fill="none" stroke="black" d="M369.09,-120.57C486.21,-110.41 721.64,-88.19 731.16,-73"/>
<path fill="none" stroke="black" d="M731.16,-72C735.93,-64.38 737.06,-54.85 736.63,-45.98"/>
<polygon fill="#8f3d3d" stroke="black" points="740.11,-45.59 735.54,-36.03 733.15,-46.35 740.11,-45.59"/>
</g>
<!-- gensim -->
<g id="node2" class="node">
<title>gensim</title><style>.edge>path:hover{stroke-width:8}</style>
<ellipse fill="#bf6a21" stroke="black" cx="190.16" cy="-199" rx="31.4" ry="18"/>
<text text-anchor="middle" x="190.16" y="-196.5" font-family="Helvetica,sans-Serif" font-size="10.00" fill="#ffffff">gensim</text>
</g>
<!-- gensim&#45;&gt;extractive_summary -->
<g id="edge2" class="edge">
<title>gensim&#45;&gt;extractive_summary</title><style>.edge>path:hover{stroke-width:8}</style>
<path fill="none" stroke="black" d="M210.8,-185.32C227.2,-175.26 250.48,-160.96 269.69,-149.16"/>
<polygon fill="#bf6a21" stroke="black" points="271.78,-151.99 278.47,-143.77 268.12,-146.02 271.78,-151.99"/>
</g>
<!-- gensim_corpora -->
<g id="node3" class="node">
<title>gensim_corpora</title><style>.edge>path:hover{stroke-width:8}</style>
<ellipse fill="#c28047" stroke="black" cx="180.16" cy="-271" rx="54.31" ry="18"/>
<text text-anchor="middle" x="180.16" y="-268.5" font-family="Helvetica,sans-Serif" font-size="10.00" fill="#000000">gensim.corpora</text>
</g>
<!-- gensim_corpora&#45;&gt;extractive_summary -->
<g id="edge3" class="edge">
<title>gensim_corpora&#45;&gt;extractive_summary</title><style>.edge>path:hover{stroke-width:8}</style>
<path fill="none" stroke="black" d="M218.72,-258.35C276.24,-240.7 377.83,-208.36 378.16,-200"/>
<path fill="none" stroke="black" d="M378.16,-198C378.99,-176.89 362.93,-160.24 345.56,-148.48"/>
<polygon fill="#c28047" stroke="black" points="347.33,-145.46 337,-143.11 343.61,-151.39 347.33,-145.46"/>
</g>
<!-- gensim_corpora&#45;&gt;gensim -->
<g id="edge4" class="edge">
<title>gensim_corpora&#45;&gt;gensim</title><style>.edge>path:hover{stroke-width:8}</style>
<path fill="none" stroke="black" d="M182.63,-252.7C183.73,-244.98 185.06,-235.71 186.28,-227.11"/>
<polygon fill="#c28047" stroke="black" points="189.76,-227.5 187.71,-217.1 182.83,-226.51 189.76,-227.5"/>
</g>
<!-- gensim_models -->
<g id="node4" class="node">
<title>gensim_models</title><style>.edge>path:hover{stroke-width:8}</style>
<ellipse fill="#c07b40" stroke="black" cx="54.16" cy="-271" rx="54.31" ry="18"/>
<text text-anchor="middle" x="54.16" y="-268.5" font-family="Helvetica,sans-Serif" font-size="10.00" fill="#000000">gensim.models</text>
</g>
<!-- gensim_models&#45;&gt;extractive_summary -->
<g id="edge5" class="edge">
<title>gensim_models&#45;&gt;extractive_summary</title><style>.edge>path:hover{stroke-width:8}</style>
<path fill="none" stroke="black" d="M68.16,-253.34C85.55,-233.58 117.01,-200.85 150.16,-181 179.14,-163.64 214.62,-150.94 244.22,-142.33"/>
<polygon fill="#c07b40" stroke="black" points="245.34,-145.65 254.01,-139.57 243.44,-138.92 245.34,-145.65"/>
</g>
<!-- gensim_models&#45;&gt;gensim -->
<g id="edge6" class="edge">
<title>gensim_models&#45;&gt;gensim</title><style>.edge>path:hover{stroke-width:8}</style>
<path fill="none" stroke="black" d="M82.34,-255.5C104.49,-244.09 135.36,-228.21 158.39,-216.35"/>
<polygon fill="#c07b40" stroke="black" points="160.13,-219.39 167.42,-211.7 156.92,-213.17 160.13,-219.39"/>
</g>
<!-- gensim_parsing -->
<g id="node5" class="node">
<title>gensim_parsing</title><style>.edge>path:hover{stroke-width:8}</style>
<ellipse fill="#cc7a33" stroke="black" cx="306.16" cy="-271" rx="54.31" ry="18"/>
<text text-anchor="middle" x="306.16" y="-268.5" font-family="Helvetica,sans-Serif" font-size="10.00" fill="#000000">gensim.parsing</text>
</g>
<!-- gensim_parsing&#45;&gt;extractive_summary -->
<g id="edge7" class="edge">
<title>gensim_parsing&#45;&gt;extractive_summary</title><style>.edge>path:hover{stroke-width:8}</style>
<path fill="none" stroke="black" d="M335.29,-255.69C354.83,-243.83 377.18,-224.91 378.16,-200"/>
</g>
<!-- gensim_parsing&#45;&gt;gensim -->
<g id="edge8" class="edge">
<title>gensim_parsing&#45;&gt;gensim</title><style>.edge>path:hover{stroke-width:8}</style>
<path fill="none" stroke="black" d="M281.27,-254.98C263.23,-244.09 238.75,-229.32 219.71,-217.83"/>
<polygon fill="#cc7a33" stroke="black" points="221.49,-214.82 211.12,-212.65 217.87,-220.81 221.49,-214.82"/>
</g>
<!-- gensim_parsing_preprocessing -->
<g id="node6" class="node">
<title>gensim_parsing_preprocessing</title><style>.edge>path:hover{stroke-width:8}</style>
<ellipse fill="#b8763d" stroke="black" cx="306.16" cy="-353.99" rx="60.21" ry="28.98"/>
<text text-anchor="middle" x="306.16" y="-362.49" font-family="Helvetica,sans-Serif" font-size="10.00" fill="#000000">gensim.</text>
<text text-anchor="middle" x="306.16" y="-351.49" font-family="Helvetica,sans-Serif" font-size="10.00" fill="#000000">parsing.</text>
<text text-anchor="middle" x="306.16" y="-340.49" font-family="Helvetica,sans-Serif" font-size="10.00" fill="#000000">preprocessing</text>
</g>
<!-- gensim_parsing_preprocessing&#45;&gt;extractive_summary -->
<g id="edge9" class="edge">
<title>gensim_parsing_preprocessing&#45;&gt;extractive_summary</title><style>.edge>path:hover{stroke-width:8}</style>
<path fill="none" stroke="black" d="M337.47,-329.14C349.44,-318.26 361.93,-304.38 369.16,-289 386.06,-253.02 376.6,-239.73 378.16,-200"/>
</g>
<!-- gensim_parsing_preprocessing&#45;&gt;gensim_parsing -->
<g id="edge10" class="edge">
<title>gensim_parsing_preprocessing&#45;&gt;gensim_parsing</title><style>.edge>path:hover{stroke-width:8}</style>
<path fill="none" stroke="black" d="M306.16,-324.66C306.16,-316.42 306.16,-307.43 306.16,-299.25"/>
<polygon fill="#b8763d" stroke="black" points="309.66,-299.1 306.16,-289.1 302.66,-299.1 309.66,-299.1"/>
</g>
<!-- librosa -->
<g id="node7" class="node">
<title>librosa</title><style>.edge>path:hover{stroke-width:8}</style>
<ellipse fill="#b6ae53" stroke="black" cx="826.16" cy="-199" rx="29.37" ry="18"/>
<text text-anchor="middle" x="826.16" y="-196.5" font-family="Helvetica,sans-Serif" font-size="10.00" fill="#000000">librosa</text>
</g>
<!-- transcriber -->
<g id="node15" class="node">
<title>transcriber</title><style>.edge>path:hover{stroke-width:8}</style>
<ellipse fill="#4d4096" stroke="black" cx="731.16" cy="-127" rx="40.74" ry="18"/>
<text text-anchor="middle" x="731.16" y="-124.5" font-family="Helvetica,sans-Serif" font-size="10.00" fill="#ffffff">transcriber</text>
</g>
<!-- librosa&#45;&gt;transcriber -->
<g id="edge11" class="edge">
<title>librosa&#45;&gt;transcriber</title><style>.edge>path:hover{stroke-width:8}</style>
<path fill="none" stroke="black" d="M807.84,-184.5C794.19,-174.45 775.3,-160.52 759.68,-149.01"/>
<polygon fill="#b6ae53" stroke="black" points="761.52,-146.02 751.39,-142.91 757.37,-151.66 761.52,-146.02"/>
</g>
<!-- rich -->
<g id="node9" class="node">
<title>rich</title><style>.edge>path:hover{stroke-width:8}</style>
<ellipse fill="#4acc33" stroke="black" cx="900.16" cy="-199" rx="27" ry="18"/>
<text text-anchor="middle" x="900.16" y="-196.5" font-family="Helvetica,sans-Serif" font-size="10.00" fill="#000000">rich</text>
</g>
<!-- rich&#45;&gt;transcriber -->
<g id="edge12" class="edge">
<title>rich&#45;&gt;transcriber</title><style>.edge>path:hover{stroke-width:8}</style>
<path fill="none" stroke="black" d="M878.94,-187.71C874.1,-185.44 868.97,-183.09 864.16,-181 832.89,-167.4 796.95,-153.16 770.32,-142.87"/>
<polygon fill="#4acc33" stroke="black" points="771.55,-139.59 760.96,-139.27 769.03,-146.13 771.55,-139.59"/>
</g>
<!-- rich_progress -->
<g id="node10" class="node">
<title>rich_progress</title><style>.edge>path:hover{stroke-width:8}</style>
<ellipse fill="#5cb34c" stroke="black" cx="955.16" cy="-271" rx="47.19" ry="18"/>
<text text-anchor="middle" x="955.16" y="-268.5" font-family="Helvetica,sans-Serif" font-size="10.00" fill="#000000">rich.progress</text>
</g>
<!-- rich_progress&#45;&gt;transcriber -->
<g id="edge13" class="edge">
<title>rich_progress&#45;&gt;transcriber</title><style>.edge>path:hover{stroke-width:8}</style>
<path fill="none" stroke="black" d="M956.55,-252.75C957.16,-232.72 954.88,-200.04 936.16,-181 886.26,-130.27 848.53,-164.69 780.16,-145 777.22,-144.16 774.21,-143.24 771.18,-142.28"/>
<polygon fill="#5cb34c" stroke="black" points="772.17,-138.92 761.58,-139.12 769.98,-145.57 772.17,-138.92"/>
</g>
<!-- spacy -->
<g id="node11" class="node">
<title>spacy</title><style>.edge>path:hover{stroke-width:8}</style>
<ellipse fill="#40c067" stroke="black" cx="304.16" cy="-199" rx="27" ry="18"/>
<text text-anchor="middle" x="304.16" y="-196.5" font-family="Helvetica,sans-Serif" font-size="10.00" fill="#000000">spacy</text>
</g>
<!-- spacy&#45;&gt;extractive_summary -->
<g id="edge14" class="edge">
<title>spacy&#45;&gt;extractive_summary</title><style>.edge>path:hover{stroke-width:8}</style>
<path fill="none" stroke="black" d="M304.16,-180.7C304.16,-172.98 304.16,-163.71 304.16,-155.11"/>
<polygon fill="#40c067" stroke="black" points="307.66,-155.1 304.16,-145.1 300.66,-155.1 307.66,-155.1"/>
</g>
<!-- speakerProcessor -->
<g id="node12" class="node">
<title>speakerProcessor</title><style>.edge>path:hover{stroke-width:8}</style>
<ellipse fill="#46a48f" stroke="black" cx="612.16" cy="-127" rx="60.09" ry="18"/>
<text text-anchor="middle" x="612.16" y="-124.5" font-family="Helvetica,sans-Serif" font-size="10.00" fill="#000000">speakerProcessor</text>
</g>
<!-- speakerProcessor&#45;&gt;main_py -->
<g id="edge15" class="edge">
<title>speakerProcessor&#45;&gt;main_py</title><style>.edge>path:hover{stroke-width:8}</style>
<path fill="none" stroke="black" d="M652.15,-113.55C683.1,-102.99 722.18,-87.32 731.16,-73"/>
</g>
<!-- torch -->
<g id="node13" class="node">
<title>torch</title><style>.edge>path:hover{stroke-width:8}</style>
<ellipse fill="#33a9cc" stroke="black" cx="639.16" cy="-199" rx="27" ry="18"/>
<text text-anchor="middle" x="639.16" y="-196.5" font-family="Helvetica,sans-Serif" font-size="10.00" fill="#000000">torch</text>
</g>
<!-- torch&#45;&gt;speakerProcessor -->
<g id="edge16" class="edge">
<title>torch&#45;&gt;speakerProcessor</title><style>.edge>path:hover{stroke-width:8}</style>
<path fill="none" stroke="black" d="M632.76,-181.41C629.64,-173.34 625.82,-163.43 622.32,-154.35"/>
<polygon fill="#33a9cc" stroke="black" points="625.56,-153.03 618.7,-144.96 619.03,-155.55 625.56,-153.03"/>
</g>
<!-- torch&#45;&gt;transcriber -->
<g id="edge17" class="edge">
<title>torch&#45;&gt;transcriber</title><style>.edge>path:hover{stroke-width:8}</style>
<path fill="none" stroke="black" d="M656.46,-184.83C669.72,-174.74 688.29,-160.62 703.59,-148.98"/>
<polygon fill="#33a9cc" stroke="black" points="705.86,-151.64 711.7,-142.8 701.62,-146.07 705.86,-151.64"/>
</g>
<!-- torchaudio -->
<g id="node14" class="node">
<title>torchaudio</title><style>.edge>path:hover{stroke-width:8}</style>
<ellipse fill="#4067c0" stroke="black" cx="554.16" cy="-199" rx="40.06" ry="18"/>
<text text-anchor="middle" x="554.16" y="-196.5" font-family="Helvetica,sans-Serif" font-size="10.00" fill="#ffffff">torchaudio</text>
</g>
<!-- torchaudio&#45;&gt;speakerProcessor -->
<g id="edge18" class="edge">
<title>torchaudio&#45;&gt;speakerProcessor</title><style>.edge>path:hover{stroke-width:8}</style>
<path fill="none" stroke="black" d="M567.61,-181.76C574.82,-173.06 583.86,-162.15 591.91,-152.43"/>
<polygon fill="#4067c0" stroke="black" points="594.69,-154.57 598.38,-144.63 589.3,-150.1 594.69,-154.57"/>
</g>
<!-- transcriber&#45;&gt;main_py -->
<g id="edge19" class="edge">
<title>transcriber&#45;&gt;main_py</title><style>.edge>path:hover{stroke-width:8}</style>
<path fill="none" stroke="black" d="M726.78,-108.97C724.93,-97.9 724.51,-83.6 731.16,-73"/>
</g>
<!-- transformers -->
<g id="node16" class="node">
<title>transformers</title><style>.edge>path:hover{stroke-width:8}</style>
<ellipse fill="#8e40c0" stroke="black" cx="731.16" cy="-199" rx="47.19" ry="18"/>
<text text-anchor="middle" x="731.16" y="-196.5" font-family="Helvetica,sans-Serif" font-size="10.00" fill="#ffffff">transformers</text>
</g>
<!-- transformers&#45;&gt;transcriber -->
<g id="edge20" class="edge">
<title>transformers&#45;&gt;transcriber</title><style>.edge>path:hover{stroke-width:8}</style>
<path fill="none" stroke="black" d="M731.16,-180.7C731.16,-172.98 731.16,-163.71 731.16,-155.11"/>
<polygon fill="#8e40c0" stroke="black" points="734.66,-155.1 731.16,-145.1 727.66,-155.1 734.66,-155.1"/>
</g>
<!-- updateRTTM -->
<g id="node17" class="node">
<title>updateRTTM</title><style>.edge>path:hover{stroke-width:8}</style>
<ellipse fill="#b653ae" stroke="black" cx="451.16" cy="-199" rx="45.15" ry="18"/>
<text text-anchor="middle" x="451.16" y="-196.5" font-family="Helvetica,sans-Serif" font-size="10.00" fill="#ffffff">updateRTTM</text>
</g>
<!-- updateRTTM&#45;&gt;speakerProcessor -->
<g id="edge21" class="edge">
<title>updateRTTM&#45;&gt;speakerProcessor</title><style>.edge>path:hover{stroke-width:8}</style>
<path fill="none" stroke="black" d="M480.69,-185.16C505.81,-174.24 542.18,-158.43 570.3,-146.2"/>
<polygon fill="#b653ae" stroke="black" points="571.72,-149.4 579.49,-142.2 568.93,-142.98 571.72,-149.4"/>
</g>
<!-- writeChat -->
<g id="node18" class="node">
<title>writeChat</title><style>.edge>path:hover{stroke-width:8}</style>
<ellipse fill="#b65381" stroke="black" cx="827.16" cy="-127" rx="37.85" ry="18"/>
<text text-anchor="middle" x="827.16" y="-124.5" font-family="Helvetica,sans-Serif" font-size="10.00" fill="#ffffff">writeChat</text>
</g>
<!-- writeChat&#45;&gt;main_py -->
<g id="edge22" class="edge">
<title>writeChat&#45;&gt;main_py</title><style>.edge>path:hover{stroke-width:8}</style>
<path fill="none" stroke="black" d="M800.22,-114.28C770.35,-100.85 726.87,-79.84 731.16,-73"/>
</g>
</g>
</svg>
